<?xml version="1.0" encoding="utf-8"?>
<!-- Svg Vector Icons : http://www.onlinewebfonts.com/icon -->
<!DOCTYPE svg PUBLIC "-//W3C//DTD SVG 1.1//EN" "http://www.w3.org/Graphics/SVG/1.1/DTD/svg11.dtd">
<svg version="1.1" xmlns="http://www.w3.org/2000/svg" xmlns:xlink="http://www.w3.org/1999/xlink" x="0px" y="0px" viewBox="0 0 1000 1000" enable-background="new 0 0 1000 1000" xml:space="preserve">
<metadata> Svg Vector Icons : http://www.onlinewebfonts.com/icon </metadata>
<g><path d="M500,10C229.4,10,10,229.4,10,500s219.4,490,490,490c270.6,0,490-219.4,490-490C990,229.4,770.6,10,500,10z M500,950.8C251,950.8,49.2,749,49.2,500C49.2,251,251,49.2,500,49.2C748.9,49.2,950.8,251,950.8,500C950.8,749,748.9,950.8,500,950.8z"/><path d="M206.8,872.4h39.4c10-131.5,119.7-235.2,253.8-235.2c134.1,0,243.8,103.7,253.8,235.2h39.4c-8-121-89.1-221.8-199.6-258.9c61-33.2,102.4-97.9,102.4-172.3c0-108.2-87.8-196-196-196c-108.3,0-196,87.8-196,196c0,74.4,41.4,139.1,102.4,172.3C295.9,650.6,214.8,751.4,206.8,872.4z M343.2,441.2c0-86.6,70.2-156.8,156.8-156.8c86.6,0,156.8,70.2,156.8,156.8c0,86.6-70.2,156.8-156.8,156.8S343.2,527.8,343.2,441.2z"/></g>
</svg>